<svg width="218" height="94" viewBox="0 0 218 94" fill="none" xmlns="http://www.w3.org/2000/svg" xmlns:xlink="http://www.w3.org/1999/xlink">
<g filter="url(#filter0_d_228_454)">
<rect x="15" y="13.3086" width="188" height="63.0773" fill="url(#pattern0)"/>
</g>
<rect x="15" y="76.386" width="188" height="13.3054" fill="url(#pattern1)"/>
<path d="M82.743 31.6992C82.3405 31.6992 81.8891 31.6176 81.3888 31.4545C80.8885 31.2913 80.3718 31.0955 79.8389 30.8671C79.3168 30.6387 78.8056 30.4212 78.3053 30.2145C78.0334 30.5082 77.7397 30.7366 77.4243 30.8998C77.1088 31.0629 76.7717 31.1445 76.4127 31.1445C76.032 31.1445 75.7057 31.0575 75.4338 30.8834C75.151 30.7203 74.9389 30.5191 74.7975 30.2798C74.6453 30.0405 74.5691 29.823 74.5691 29.6272C74.5691 29.4096 74.667 29.2193 74.8628 29.0562C75.0586 28.893 75.4066 28.8114 75.907 28.8114C76.2006 28.8114 76.5215 28.8441 76.8695 28.9093C77.2285 28.9637 77.5928 29.0398 77.9627 29.1377C78.2128 28.7027 78.4412 28.1915 78.6479 27.6041C78.8654 27.0168 79.0775 26.4022 79.2842 25.7605C79.4908 25.1079 79.6975 24.4716 79.9041 23.8516C79.3603 23.6667 78.9416 23.4111 78.6479 23.0848C78.3542 22.7477 78.2074 22.4105 78.2074 22.0733C78.2074 21.8558 78.2618 21.6437 78.3705 21.437C78.4793 21.2195 78.637 21.04 78.8437 20.8986C79.0503 20.7463 79.2951 20.6702 79.5778 20.6702C79.4364 20.8442 79.344 21.04 79.3005 21.2575C79.2679 21.4751 79.2515 21.6491 79.2515 21.7796C79.2515 22.1386 79.3331 22.4431 79.4963 22.6933C79.6594 22.9434 79.8606 23.1392 80.0999 23.2806C80.3066 22.6606 80.5241 22.0679 80.7525 21.5023C80.9918 20.9258 81.2529 20.42 81.5357 19.985C81.8293 19.539 82.1502 19.1855 82.4982 18.9245C82.8572 18.6634 83.2596 18.5329 83.7056 18.5329C83.9557 18.5329 84.2168 18.5873 84.4887 18.6961C84.7715 18.794 85.0108 18.968 85.2065 19.2182C85.4132 19.4683 85.5165 19.8273 85.5165 20.295C85.5165 20.6648 85.435 21.0618 85.2718 21.486C85.1195 21.9101 84.8748 22.318 84.5376 22.7096C84.2005 23.0903 83.7654 23.4111 83.2324 23.6722C82.7103 23.9223 82.0741 24.0583 81.3236 24.0801C81.3018 24.0801 81.2746 24.0801 81.242 24.0801C81.2202 24.0801 81.1985 24.0801 81.1767 24.0801C80.9701 24.7109 80.7525 25.3472 80.5241 25.9889C80.2957 26.6306 80.051 27.2452 79.7899 27.8325C79.5289 28.4199 79.2461 28.9419 78.9416 29.3988C79.3657 29.5184 79.8334 29.6544 80.3447 29.8066C80.8667 29.9589 81.3834 30.0894 81.8946 30.1982C82.4167 30.2961 82.8735 30.345 83.2651 30.345C83.5261 30.345 83.7654 30.3179 83.9829 30.2635C84.2113 30.1982 84.4506 30.1058 84.7008 29.9861C84.4832 30.5952 84.2113 31.0303 83.885 31.2913C83.5696 31.5632 83.1889 31.6992 82.743 31.6992ZM76.2496 30.5408C76.5324 30.5408 76.7608 30.4756 76.9348 30.345C77.1088 30.2254 77.2829 30.0731 77.4569 29.8882C77.1197 29.7686 76.8043 29.6707 76.5106 29.5946C76.2169 29.5075 75.9613 29.464 75.7438 29.464C75.5371 29.464 75.3903 29.5021 75.3033 29.5782C75.2054 29.6544 75.1565 29.7468 75.1565 29.8556C75.1565 30.0296 75.2652 30.1873 75.4828 30.3287C75.7003 30.4701 75.9559 30.5408 76.2496 30.5408ZM81.3562 23.5417C81.8348 23.509 82.259 23.3568 82.6288 23.0848C82.9986 22.8129 83.314 22.4866 83.575 22.1059C83.8361 21.7252 84.0319 21.3391 84.1624 20.9476C84.3038 20.5451 84.3745 20.1971 84.3745 19.9034C84.3745 19.6206 84.3201 19.4303 84.2113 19.3324C84.1026 19.2236 83.9775 19.1692 83.8361 19.1692C83.5207 19.1692 83.2215 19.3704 82.9388 19.7729C82.656 20.1753 82.384 20.7083 82.123 21.3718C81.8728 22.0244 81.6172 22.7477 81.3562 23.5417ZM86.4409 30.8019C85.9514 30.8019 85.6143 30.6387 85.4294 30.3124C85.2553 29.997 85.1683 29.6489 85.1683 29.2683C85.1683 28.9202 85.2227 28.5667 85.3315 28.2078C85.4402 27.838 85.5871 27.4953 85.772 27.1799C85.9677 26.8645 86.1798 26.6143 86.4083 26.4294C86.6475 26.2336 86.8868 26.1358 87.1261 26.1358C87.2023 26.1358 87.2893 26.1521 87.3872 26.1847C87.4959 26.2065 87.5721 26.2445 87.6156 26.2989C87.4851 26.4621 87.3491 26.6633 87.2077 26.9026C87.0772 27.1419 86.9521 27.3975 86.8324 27.6694C86.7237 27.9304 86.6367 28.1969 86.5714 28.4688C86.5061 28.7407 86.4735 28.9909 86.4735 29.2193C86.4735 29.4368 86.5116 29.6163 86.5877 29.7577C86.6747 29.8991 86.8216 29.9698 87.0282 29.9698C87.2349 29.9698 87.4796 29.8556 87.7624 29.6272C88.0561 29.3879 88.3334 29.116 88.5945 28.8114C88.2464 28.496 87.9963 28.1534 87.844 27.7836C87.6917 27.4029 87.6156 26.9461 87.6156 26.4131C87.6156 26.1847 87.67 25.9237 87.7787 25.63C87.8984 25.3363 88.0833 25.0807 88.3334 24.8632C88.5945 24.6456 88.9425 24.5369 89.3776 24.5369C89.8453 24.5369 90.1716 24.6674 90.3565 24.9284C90.5523 25.1895 90.6502 25.4995 90.6502 25.8584C90.6502 26.2608 90.5414 26.7122 90.3239 27.2126C90.1172 27.7129 89.8671 28.186 89.5734 28.632C89.7039 28.6972 89.8562 28.7299 90.0302 28.7299C90.1934 28.7299 90.3891 28.6918 90.6175 28.6156C90.846 28.5395 91.0689 28.4144 91.2865 28.2404C91.504 28.0555 91.678 27.8108 91.8085 27.5062L92.1022 27.7183C91.8629 28.273 91.5421 28.6809 91.1396 28.9419C90.7481 29.1921 90.3619 29.3172 89.9813 29.3172C89.8399 29.3172 89.6985 29.3063 89.5571 29.2846C89.4157 29.2519 89.2851 29.2139 89.1655 29.1704C88.7957 29.6054 88.3715 29.9861 87.8929 30.3124C87.4144 30.6387 86.9303 30.8019 86.4409 30.8019ZM89.0187 28.2893C89.2797 27.9087 89.5027 27.5008 89.6876 27.0657C89.8725 26.6306 89.9649 26.2282 89.9649 25.8584C89.9649 25.6082 89.9269 25.4288 89.8507 25.32C89.7746 25.2004 89.6604 25.1405 89.5081 25.1405C89.3015 25.1405 89.0894 25.2874 88.8718 25.581C88.6543 25.8747 88.5455 26.2445 88.5455 26.6905C88.5455 26.9189 88.5836 27.1962 88.6597 27.5225C88.7467 27.8488 88.8664 28.1044 89.0187 28.2893ZM93.3433 31.1119C92.7995 31.1119 92.359 30.9976 92.0218 30.7692C91.6955 30.5517 91.4616 30.2743 91.3202 29.9372C91.1788 29.5891 91.1081 29.2356 91.1081 28.8767C91.1081 28.5613 91.1517 28.3165 91.2387 28.1425C91.3257 27.9685 91.4344 27.8434 91.565 27.7673C91.6955 27.6802 91.8151 27.615 91.9239 27.5715C92.0435 27.528 92.1306 27.479 92.1849 27.4246C92.4569 27.1419 92.7342 26.8155 93.017 26.4457C93.3107 26.0651 93.5608 25.6463 93.7675 25.1895V25.0263C93.7675 24.5913 93.8382 24.2867 93.9796 24.1127C94.1319 23.9278 94.3059 23.8353 94.5017 23.8353C94.6322 23.8353 94.7247 23.868 94.779 23.9332C94.8443 23.9985 94.8824 24.0746 94.8932 24.1616C94.8932 24.2269 94.8769 24.303 94.8443 24.39C94.8225 24.4771 94.8117 24.5967 94.8117 24.749C94.8117 25.0753 94.8878 25.4505 95.0401 25.8747C95.2032 26.288 95.3609 26.7285 95.5132 27.1962C95.6764 27.6639 95.7579 28.1425 95.7579 28.632C95.7579 28.7625 95.7525 28.8821 95.7416 28.9909C95.7308 29.0997 95.7144 29.203 95.6927 29.3009C96.0299 29.2139 96.3616 29.029 96.6879 28.7462C97.0142 28.4525 97.3242 28.0229 97.6179 27.4573L97.8136 27.6041C97.607 28.2241 97.3079 28.7244 96.9163 29.1051C96.5248 29.4749 96.0679 29.7033 95.5458 29.7903C95.3718 30.2363 95.0836 30.568 94.6811 30.7856C94.2896 31.0031 93.8436 31.1119 93.3433 31.1119ZM93.2291 30.394C93.4466 30.394 93.6479 30.3396 93.8328 30.2308C94.0177 30.1221 94.1645 29.9644 94.2733 29.7577C93.8273 29.6598 93.4249 29.4858 93.066 29.2356C92.707 28.9855 92.4297 28.7299 92.2339 28.4688C92.0816 28.5014 92.0055 28.6483 92.0055 28.9093C92.0055 29.2683 92.1088 29.6054 92.3155 29.9209C92.5221 30.2363 92.8267 30.394 93.2291 30.394ZM94.4038 29.2683C94.4255 29.1921 94.4364 29.1051 94.4364 29.0072C94.4473 28.8984 94.4527 28.8169 94.4527 28.7625C94.4419 28.273 94.3766 27.789 94.257 27.3104C94.1373 26.8319 94.0177 26.3424 93.898 25.8421C93.7022 26.1793 93.4738 26.5436 93.2128 26.9352C92.9517 27.3268 92.707 27.6422 92.4786 27.8815C92.6526 28.1751 92.9082 28.4525 93.2454 28.7135C93.5826 28.9746 93.9687 29.1595 94.4038 29.2683ZM105.194 31.6992C104.563 31.6992 103.959 31.5904 103.383 31.3729C102.817 31.1554 102.355 30.8236 101.996 30.3777C101.637 29.9317 101.458 29.377 101.458 28.7135C101.458 28.1262 101.588 27.6694 101.849 27.3431C102.11 27.0059 102.437 26.772 102.828 26.6415C103.22 26.511 103.6 26.4457 103.97 26.4457C103.622 26.8155 103.356 27.1962 103.171 27.5878C102.997 27.9794 102.91 28.3546 102.91 28.7135C102.91 29.0833 103.002 29.4314 103.187 29.7577C103.383 30.0731 103.671 30.3287 104.052 30.5245C104.432 30.7312 104.906 30.8345 105.471 30.8345C105.961 30.8345 106.434 30.7529 106.891 30.5898C107.358 30.4266 107.739 30.1819 108.033 29.8556C108.337 29.5293 108.489 29.1214 108.489 28.632C108.489 28.186 108.359 27.8053 108.098 27.4899C107.848 27.1636 107.521 26.8754 107.119 26.6252C106.717 26.3642 106.292 26.1194 105.846 25.891C105.4 25.6517 104.976 25.3961 104.574 25.1242C104.171 24.8523 103.84 24.5369 103.579 24.1779C103.328 23.819 103.203 23.3894 103.203 22.8891C103.203 22.4431 103.312 21.97 103.53 21.4696C103.758 20.9584 104.079 20.4799 104.492 20.0339C104.906 19.588 105.406 19.229 105.993 18.9571C106.581 18.6743 107.233 18.5329 107.951 18.5329C108.702 18.5329 109.229 18.6906 109.534 19.0061C109.838 19.3215 109.99 19.7348 109.99 20.246C109.99 20.6485 109.92 21.0781 109.778 21.5349C109.637 21.9917 109.463 22.4268 109.256 22.8401C109.06 23.2534 108.87 23.6069 108.685 23.9006C108.446 23.8462 108.266 23.7538 108.147 23.6232C108.027 23.4818 107.967 23.2969 107.967 23.0685C107.967 22.8401 108.011 22.5845 108.098 22.3017C108.196 22.0189 108.305 21.7252 108.424 21.4207C108.555 21.1161 108.663 20.8225 108.75 20.5397C108.848 20.246 108.897 19.9904 108.897 19.7729C108.897 19.5771 108.837 19.4248 108.718 19.3161C108.609 19.2073 108.381 19.1529 108.033 19.1529C107.511 19.1529 107.032 19.2671 106.597 19.4955C106.162 19.7239 105.781 20.0122 105.455 20.3602C105.139 20.7083 104.895 21.0781 104.721 21.4696C104.547 21.8503 104.46 22.1984 104.46 22.5138C104.46 22.9054 104.585 23.2425 104.835 23.5253C105.085 23.7973 105.406 24.0474 105.797 24.2758C106.2 24.5042 106.619 24.7327 107.054 24.9611C107.5 25.1895 107.918 25.4451 108.31 25.7279C108.712 26.0107 109.039 26.3479 109.289 26.7394C109.539 27.131 109.664 27.6096 109.664 28.1751C109.664 28.7407 109.534 29.2411 109.273 29.6761C109.022 30.1112 108.68 30.4756 108.245 30.7692C107.81 31.0738 107.326 31.3022 106.793 31.4545C106.271 31.6176 105.738 31.6992 105.194 31.6992ZM111.563 31.0466C111.204 31.0466 110.894 30.9269 110.633 30.6877C110.361 30.4484 110.225 30.0894 110.225 29.6109C110.225 29.2302 110.312 28.8169 110.486 28.3709C110.66 27.925 110.899 27.4845 111.204 27.0494C111.509 26.6143 111.857 26.2228 112.248 25.8747C112.64 25.5158 113.058 25.2275 113.504 25.01C113.95 24.7925 114.396 24.6837 114.842 24.6837C115.31 24.6837 115.707 24.8034 116.033 25.0426C116.36 25.2819 116.523 25.5974 116.523 25.9889C116.523 26.2826 116.419 26.4947 116.213 26.6252C116.006 26.7557 115.761 26.7938 115.479 26.7394C115.5 26.6415 115.517 26.5436 115.527 26.4457C115.549 26.3479 115.56 26.2445 115.56 26.1358C115.56 25.9182 115.517 25.7224 115.43 25.5484C115.343 25.3744 115.158 25.2874 114.875 25.2874C114.57 25.2874 114.26 25.3907 113.945 25.5974C113.629 25.804 113.325 26.0759 113.031 26.4131C112.748 26.7394 112.493 27.1038 112.264 27.5062C112.036 27.8978 111.857 28.2839 111.726 28.6646C111.596 29.0453 111.53 29.3879 111.53 29.6924C111.53 30.0405 111.655 30.2145 111.906 30.2145C112.156 30.2145 112.433 30.0949 112.738 29.8556C113.042 29.6054 113.347 29.2954 113.651 28.9256C113.967 28.5558 114.266 28.1806 114.549 27.7999C114.831 27.4083 115.076 27.0766 115.283 26.8047C115.315 26.7503 115.359 26.7231 115.413 26.7231C115.457 26.734 115.538 26.7612 115.658 26.8047C115.789 26.8373 115.908 26.8917 116.017 26.9678C116.126 27.044 116.18 27.1419 116.18 27.2615C116.18 27.3703 116.131 27.5117 116.033 27.6857C115.946 27.8488 115.837 28.0337 115.707 28.2404C115.587 28.4362 115.479 28.6374 115.381 28.8441C115.294 29.0398 115.25 29.2302 115.25 29.4151C115.25 29.5565 115.288 29.6924 115.364 29.823C115.44 29.9426 115.566 30.0024 115.74 30.0024C116.001 30.0024 116.365 29.8121 116.833 29.4314C117.311 29.0398 117.795 28.3818 118.285 27.4573L118.595 27.7673C118.334 28.3546 118.018 28.8767 117.648 29.3335C117.29 29.7795 116.909 30.1275 116.506 30.3777C116.104 30.6387 115.696 30.7692 115.283 30.7692C114.837 30.7692 114.505 30.6278 114.288 30.345C114.07 30.0623 113.95 29.7577 113.929 29.4314C113.929 29.4096 113.929 29.3933 113.929 29.3825C113.929 29.3716 113.929 29.3607 113.929 29.3498C113.494 29.8719 113.091 30.2852 112.721 30.5898C112.362 30.8943 111.976 31.0466 111.563 31.0466ZM123.397 30.6061C122.973 30.6061 122.646 30.4973 122.418 30.2798C122.2 30.0731 122.092 29.8066 122.092 29.4803C122.092 29.2628 122.13 29.0344 122.206 28.7951C122.282 28.5449 122.358 28.2948 122.434 28.0446C122.51 27.7945 122.548 27.5552 122.548 27.3268C122.548 27.0875 122.489 26.9243 122.369 26.8373C122.26 26.7394 122.13 26.6905 121.977 26.6905C121.651 26.6905 121.314 26.8264 120.966 27.0983C120.629 27.3594 120.297 27.6911 119.971 28.0936C119.655 28.496 119.356 28.9148 119.073 29.3498C118.791 29.7849 118.546 30.1765 118.339 30.5245C118.133 30.5245 117.937 30.4864 117.752 30.4103C117.567 30.345 117.409 30.2254 117.279 30.0514C117.29 29.997 117.355 29.8338 117.474 29.5619C117.583 29.2791 117.708 28.9474 117.85 28.5667C117.991 28.1751 118.116 27.7673 118.225 27.3431C118.334 26.9189 118.388 26.5328 118.388 26.1847C118.464 26.0977 118.578 26.0107 118.731 25.9237C118.894 25.8366 119.062 25.7931 119.236 25.7931C119.617 25.7931 119.808 25.9563 119.808 26.2826C119.808 26.4131 119.78 26.6089 119.726 26.8699C119.682 27.1201 119.617 27.4083 119.53 27.7346C119.813 27.3539 120.123 26.995 120.46 26.6578C120.797 26.3207 121.145 26.0487 121.504 25.8421C121.874 25.6245 122.244 25.5158 122.614 25.5158C123.081 25.5158 123.424 25.6735 123.642 25.9889C123.87 26.3043 123.984 26.6524 123.984 27.0331C123.984 27.3594 123.93 27.6639 123.821 27.9467C123.712 28.2295 123.603 28.496 123.495 28.7462C123.397 28.9963 123.348 29.2411 123.348 29.4803C123.348 29.6544 123.386 29.7795 123.462 29.8556C123.549 29.9209 123.642 29.9535 123.739 29.9535C124 29.9535 124.272 29.8284 124.555 29.5782C124.838 29.3281 125.104 29.0126 125.355 28.632C125.616 28.2404 125.844 27.8488 126.04 27.4573L126.317 27.6857C126.089 28.2186 125.828 28.7081 125.534 29.154C125.251 29.5891 124.93 29.9426 124.572 30.2145C124.223 30.4756 123.832 30.6061 123.397 30.6061ZM127.095 31.0303C126.616 31.0303 126.23 30.8889 125.936 30.6061C125.643 30.3233 125.496 29.8937 125.496 29.3172C125.496 28.8712 125.577 28.3165 125.741 27.6531C125.915 26.9896 126.132 26.3043 126.393 25.5974C126.317 25.5756 126.225 25.5593 126.116 25.5484C126.018 25.5267 125.92 25.494 125.822 25.4505V24.9448C125.996 24.9665 126.138 24.9828 126.246 24.9937C126.366 25.0046 126.486 25.0155 126.605 25.0263C126.834 24.4499 127.078 23.8952 127.339 23.3622C127.611 22.8184 127.878 22.3343 128.139 21.9101C128.411 21.486 128.666 21.1542 128.906 20.9149C129.145 20.6648 129.357 20.5397 129.542 20.5397C129.651 20.5397 129.754 20.5832 129.852 20.6702C129.95 20.7463 129.999 20.8605 129.999 21.0128C129.999 21.2304 129.885 21.5403 129.656 21.9428C129.439 22.3452 129.167 22.8184 128.84 23.3622C128.514 23.8952 128.199 24.4662 127.894 25.0753C127.981 25.0753 128.068 25.0753 128.155 25.0753C128.242 25.0753 128.324 25.0753 128.4 25.0753C128.879 25.0753 129.308 25.0698 129.689 25.059C130.08 25.0372 130.477 25.0046 130.88 24.9611V25.4995C130.282 25.5539 129.732 25.5974 129.232 25.63C128.732 25.6626 128.253 25.6844 127.796 25.6952C127.764 25.6952 127.731 25.6952 127.698 25.6952C127.666 25.6952 127.633 25.6952 127.601 25.6952C127.372 26.2282 127.171 26.7775 126.997 27.3431C126.834 27.8978 126.752 28.4416 126.752 28.9746C126.752 29.4205 126.823 29.7359 126.964 29.9209C127.106 30.1058 127.329 30.1982 127.633 30.1982C128.177 30.1982 128.732 29.9535 129.297 29.464C129.874 28.9637 130.374 28.2893 130.798 27.441L131.027 27.6041C130.744 28.2458 130.39 28.8277 129.966 29.3498C129.553 29.8719 129.102 30.2798 128.612 30.5735C128.123 30.878 127.617 31.0303 127.095 31.0303ZM131.387 30.8019C130.898 30.8019 130.56 30.6387 130.375 30.3124C130.201 29.997 130.114 29.6489 130.114 29.2683C130.114 28.9202 130.169 28.5667 130.278 28.2078C130.386 27.838 130.533 27.4953 130.718 27.1799C130.914 26.8645 131.126 26.6143 131.354 26.4294C131.594 26.2336 131.833 26.1358 132.072 26.1358C132.148 26.1358 132.235 26.1521 132.333 26.1847C132.442 26.2065 132.518 26.2445 132.562 26.2989C132.431 26.4621 132.295 26.6633 132.154 26.9026C132.023 27.1419 131.898 27.3975 131.779 27.6694C131.67 27.9304 131.583 28.1969 131.518 28.4688C131.452 28.7407 131.42 28.9909 131.42 29.2193C131.42 29.4368 131.458 29.6163 131.534 29.7577C131.621 29.8991 131.768 29.9698 131.974 29.9698C132.181 29.9698 132.426 29.8556 132.709 29.6272C133.002 29.3879 133.28 29.116 133.541 28.8114C133.193 28.496 132.942 28.1534 132.79 27.7836C132.638 27.4029 132.562 26.9461 132.562 26.4131C132.562 26.1847 132.616 25.9237 132.725 25.63C132.844 25.3363 133.029 25.0807 133.28 24.8632C133.541 24.6456 133.889 24.5369 134.324 24.5369C134.791 24.5369 135.118 24.6674 135.303 24.9284C135.498 25.1895 135.596 25.4995 135.596 25.8584C135.596 26.2608 135.488 26.7122 135.27 27.2126C135.063 27.7129 134.813 28.186 134.52 28.632C134.65 28.6972 134.802 28.7299 134.976 28.7299C135.139 28.7299 135.335 28.6918 135.564 28.6156C135.792 28.5395 136.015 28.4144 136.233 28.2404C136.45 28.0555 136.624 27.8108 136.755 27.5062L137.048 27.7183C136.809 28.273 136.488 28.6809 136.086 28.9419C135.694 29.1921 135.308 29.3172 134.927 29.3172C134.786 29.3172 134.645 29.3063 134.503 29.2846C134.362 29.2519 134.231 29.2139 134.112 29.1704C133.742 29.6054 133.318 29.9861 132.839 30.3124C132.36 30.6387 131.876 30.8019 131.387 30.8019ZM133.965 28.2893C134.226 27.9087 134.449 27.5008 134.634 27.0657C134.819 26.6306 134.911 26.2282 134.911 25.8584C134.911 25.6082 134.873 25.4288 134.797 25.32C134.721 25.2004 134.607 25.1405 134.454 25.1405C134.248 25.1405 134.035 25.2874 133.818 25.581C133.6 25.8747 133.492 26.2445 133.492 26.6905C133.492 26.9189 133.53 27.1962 133.606 27.5225C133.693 27.8488 133.813 28.1044 133.965 28.2893ZM138.289 31.1119C137.746 31.1119 137.305 30.9976 136.968 30.7692C136.642 30.5517 136.408 30.2743 136.266 29.9372C136.125 29.5891 136.054 29.2356 136.054 28.8767C136.054 28.5613 136.098 28.3165 136.185 28.1425C136.272 27.9685 136.381 27.8434 136.511 27.7673C136.642 27.6802 136.761 27.615 136.87 27.5715C136.99 27.528 137.077 27.479 137.131 27.4246C137.403 27.1419 137.68 26.8155 137.963 26.4457C138.257 26.0651 138.507 25.6463 138.714 25.1895V25.0263C138.714 24.5913 138.784 24.2867 138.926 24.1127C139.078 23.9278 139.252 23.8353 139.448 23.8353C139.578 23.8353 139.671 23.868 139.725 23.9332C139.79 23.9985 139.828 24.0746 139.839 24.1616C139.839 24.2269 139.823 24.303 139.79 24.39C139.769 24.4771 139.758 24.5967 139.758 24.749C139.758 25.0753 139.834 25.4505 139.986 25.8747C140.149 26.288 140.307 26.7285 140.459 27.1962C140.622 27.6639 140.704 28.1425 140.704 28.632C140.704 28.7625 140.699 28.8821 140.688 28.9909C140.677 29.0997 140.661 29.203 140.639 29.3009C140.976 29.2139 141.308 29.029 141.634 28.7462C141.96 28.4525 142.27 28.0229 142.564 27.4573L142.76 27.6041C142.553 28.2241 142.254 28.7244 141.862 29.1051C141.471 29.4749 141.014 29.7033 140.492 29.7903C140.318 30.2363 140.03 30.568 139.627 30.7856C139.236 31.0031 138.79 31.1119 138.289 31.1119ZM138.175 30.394C138.393 30.394 138.594 30.3396 138.779 30.2308C138.964 30.1221 139.111 29.9644 139.219 29.7577C138.773 29.6598 138.371 29.4858 138.012 29.2356C137.653 28.9855 137.376 28.7299 137.18 28.4688C137.028 28.5014 136.952 28.6483 136.952 28.9093C136.952 29.2683 137.055 29.6054 137.262 29.9209C137.468 30.2363 137.773 30.394 138.175 30.394ZM139.35 29.2683C139.372 29.1921 139.383 29.1051 139.383 29.0072C139.393 28.8984 139.399 28.8169 139.399 28.7625C139.388 28.273 139.323 27.789 139.203 27.3104C139.083 26.8319 138.964 26.3424 138.844 25.8421C138.648 26.1793 138.42 26.5436 138.159 26.9352C137.898 27.3268 137.653 27.6422 137.425 27.8815C137.599 28.1751 137.854 28.4525 138.192 28.7135C138.529 28.9746 138.915 29.1595 139.35 29.2683Z" fill="#B00D0E"/>
<defs>
<filter id="filter0_d_228_454" x="0.216255" y="0.988806" width="217.567" height="92.6449" filterUnits="userSpaceOnUse" color-interpolation-filters="sRGB">
<feFlood flood-opacity="0" result="BackgroundImageFix"/>
<feColorMatrix in="SourceAlpha" type="matrix" values="0 0 0 0 0 0 0 0 0 0 0 0 0 0 0 0 0 0 127 0" result="hardAlpha"/>
<feOffset dy="2.46396"/>
<feGaussianBlur stdDeviation="7.39187"/>
<feColorMatrix type="matrix" values="0 0 0 0 0 0 0 0 0 0 0 0 0 0 0 0 0 0 0.6 0"/>
<feBlend mode="normal" in2="BackgroundImageFix" result="effect1_dropShadow_228_454"/>
<feBlend mode="normal" in="SourceGraphic" in2="effect1_dropShadow_228_454" result="shape"/>
</filter>
<pattern id="pattern0" patternContentUnits="objectBoundingBox" width="1" height="1">
<use xlink:href="#image0_228_454" transform="matrix(0.000691563 0 0 0.00206118 0 0.000970758)"/>
</pattern>
<pattern id="pattern1" patternContentUnits="objectBoundingBox" width="1" height="1">
<use xlink:href="#image0_228_454" transform="matrix(0.000691563 0 0 0.00977153 0 -6.03198)"/>
</pattern>
<image id="image0_228_454" width="1446" height="720" xlink:href="data:image/png;base64"/>
</defs>
</svg>
