<?xml version="1.0" standalone="no"?>
<!DOCTYPE svg PUBLIC "-//W3C//DTD SVG 20010904//EN"
 "http://www.w3.org/TR/2001/REC-SVG-20010904/DTD/svg10.dtd">
<svg version="1.0" xmlns="http://www.w3.org/2000/svg"
 width="512.000000pt" height="512.000000pt" viewBox="0 0 512.000000 512.000000"
 preserveAspectRatio="xMidYMid meet">

<g transform="translate(0.000000,512.000000) scale(0.100000,-0.100000)"
fill="#000000" stroke="none">
<path d="M2384 5046 c-325 -62 -585 -248 -739 -529 -221 -402 -142 -923 189
-1246 l45 -44 -67 -40 c-210 -126 -363 -283 -527 -539 -6 -10 -73 -33 -165
-58 -420 -113 -755 -291 -911 -484 -165 -204 -192 -424 -81 -641 42 -81 190
-237 287 -302 304 -204 772 -352 1347 -428 61 -8 114 -15 117 -15 3 0 -63 -69
-147 -153 l-152 -152 148 -148 147 -147 385 385 385 385 -388 387 -387 388
-147 -147 -148 -148 110 -111 c96 -97 106 -110 80 -105 -16 3 -74 12 -128 21
-373 58 -746 180 -949 310 -80 52 -172 135 -194 177 -56 107 44 232 286 356
109 57 293 132 323 132 10 0 11 -14 6 -67 -5 -38 -8 -132 -8 -210 l-1 -143
210 0 210 0 0 156 c0 344 98 585 327 805 141 137 322 229 528 269 84 17 305
15 392 -4 358 -77 636 -315 772 -663 41 -104 61 -240 61 -407 l0 -156 210 0
210 0 -1 143 c0 78 -3 172 -8 209 -5 54 -4 68 6 68 30 0 214 -75 323 -132 259
-133 353 -262 272 -374 -176 -243 -793 -456 -1497 -515 -77 -7 -143 -15 -146
-18 -7 -6 18 -402 25 -409 7 -7 255 18 433 43 430 62 777 159 1058 295 169 82
265 149 376 259 103 104 154 188 184 306 54 214 -44 450 -260 624 -190 152
-482 285 -818 371 -125 32 -129 34 -147 69 -89 173 -311 397 -512 518 l-67 40
45 44 c157 153 274 382 305 598 17 122 6 303 -25 419 -100 364 -383 645 -741
738 -123 32 -330 41 -441 20z m401 -444 c188 -75 330 -234 380 -427 20 -77 20
-232 0 -310 -54 -210 -218 -380 -429 -444 -95 -29 -257 -29 -352 0 -197 60
-357 215 -418 406 -38 117 -36 277 5 400 46 141 177 288 315 353 104 50 156
60 294 57 113 -3 133 -7 205 -35z"/>
</g>
</svg>
